<svg width="296" height="290" viewBox="0 0 296 290" fill="none" xmlns="http://www.w3.org/2000/svg">
<path d="M271.584 284.787H24.3021C13.7414 284.787 5.17529 276.223 5.17529 265.665V22.5371C5.17529 11.9788 13.7414 3.4147 24.3021 3.4147H271.584C282.145 3.4147 290.711 11.9788 290.711 22.5371V265.665C290.711 276.223 282.145 284.787 271.584 284.787Z" fill="#0C1714" stroke="#6AC9D2" stroke-width="10" stroke-miterlimit="10"/>
<path d="M49.5493 130.845H42.7593V137.633H49.5493V130.845Z" fill="#596274"/>
<path d="M49.3786 62.5712H42.5886V69.3596H49.3786V62.5712Z" fill="#596274"/>
<path d="M117.299 62.5712H110.509V69.3596H117.299V62.5712Z" fill="#596274"/>
<path d="M185.22 62.5712H178.43V69.3596H185.22V62.5712Z" fill="#596274"/>
<path d="M185.22 131.207H178.43V137.995H185.22V131.207Z" fill="#596274"/>
<path d="M253.14 131.207H246.35V137.995H253.14V131.207Z" fill="#596274"/>
<path opacity="0.1" d="M216.219 31.791H147.431V100.563H216.219V31.791Z" fill="#6AC9D2"/>
<path opacity="0.1" d="M205.685 42.3288H157.964V90.0391H205.685V42.3288Z" fill="#6AC9D2"/>
<path d="M186.477 61.5331H177.18V70.828H186.477V61.5331Z" fill="#6AC9D2"/>
<path d="M193.909 54.0958H169.741V78.2583H193.909V54.0958Z" stroke="#6AC9D2" stroke-width="2" stroke-linecap="round" stroke-linejoin="round"/>
<path d="M176.531 197.842L169.351 190.664C169.024 190.336 168.491 190.336 168.156 190.664L119.123 239.685C118.795 240.013 118.795 240.546 119.123 240.881L126.302 248.058C126.63 248.386 127.163 248.386 127.498 248.058L176.531 199.037C176.859 198.702 176.859 198.169 176.531 197.842Z" fill="#6AC9D2"/>
<path d="M159.788 224.142L152.609 231.319C152.281 231.647 152.281 232.18 152.609 232.515L168.156 248.058C168.484 248.386 169.017 248.386 169.351 248.058L176.531 240.881C176.859 240.553 176.859 240.02 176.531 239.685L160.984 224.142C160.656 223.814 160.123 223.814 159.788 224.142Z" fill="#6AC9D2"/>
<path d="M135.872 214.581L143.052 207.403C143.38 207.075 143.38 206.542 143.052 206.208L127.504 190.664C127.177 190.336 126.644 190.336 126.309 190.664L119.13 197.842C118.802 198.169 118.802 198.702 119.13 199.037L134.677 214.581C135.005 214.908 135.538 214.908 135.872 214.581Z" fill="#6AC9D2"/>
<path d="M227.825 202.499V213.74H252.293C252.758 213.74 253.14 214.116 253.14 214.587V224.142C253.14 224.606 252.765 224.989 252.293 224.989H227.825V236.23H252.293C252.758 236.23 253.14 236.605 253.14 237.077V246.631C253.14 247.095 252.765 247.478 252.293 247.478H216.014C215.549 247.478 215.167 247.102 215.167 246.631V192.112C215.167 191.647 215.542 191.265 216.014 191.265H252.293C252.758 191.265 253.14 191.64 253.14 192.112V201.666C253.14 202.13 252.765 202.513 252.293 202.513H227.825V202.499Z" fill="#6AC9D2"/>
<path d="M42.5886 192.098V201.652C42.5886 202.117 42.9643 202.499 43.4357 202.499H67.9043V225.549C67.9043 226.013 68.28 226.395 68.7513 226.395H79.7219C80.1864 226.395 80.569 226.02 80.569 225.549V192.098C80.569 191.634 80.1932 191.251 79.7219 191.251H43.4357C42.9712 191.258 42.5886 191.634 42.5886 192.098Z" fill="#6AC9D2"/>
<path d="M43.4357 247.464H54.4062C54.8708 247.464 55.2533 247.089 55.2533 246.617V214.58C55.2533 214.116 54.8776 213.734 54.4062 213.734H43.4357C42.9712 213.734 42.5886 214.109 42.5886 214.58V246.617C42.5886 247.082 42.9712 247.464 43.4357 247.464Z" fill="#6AC9D2"/>
<path d="M94.0602 247.464H105.031C105.495 247.464 105.878 247.089 105.878 246.617V192.098C105.878 191.634 105.502 191.251 105.031 191.251H94.0602C93.5957 191.251 93.2131 191.627 93.2131 192.098V246.617C93.22 247.082 93.5957 247.464 94.0602 247.464Z" fill="#6AC9D2"/>
<path d="M190.698 247.464H201.669C202.133 247.464 202.516 247.089 202.516 246.617V192.098C202.516 191.634 202.14 191.251 201.669 191.251H190.698C190.234 191.251 189.851 191.627 189.851 192.098V246.617C189.858 247.082 190.234 247.464 190.698 247.464Z" fill="#6AC9D2"/>
</svg>
